<svg xmlns="http://www.w3.org/2000/svg" viewBox="0 0 5696 4976" width="5696" height="4976">
	<style>
		tspan { white-space:pre }
		.shp0 { fill: #000000 } 
		.shp1 { fill: #feffff } 
		.shp2 { fill: #fe0100 } 
	</style>
	<g id="Background">
		<path id="Path 0" class="shp0" d="M0 2488L0 4976L5696 4976L5696 0L0 0L0 2488Z" />
		<path id="Path 1" class="shp1" d="M1845.08 883C1831.7 924.25 1800.93 1019.2 1776.71 1094C1752.48 1168.8 1699.31 1332.6 1658.54 1458C1617.77 1583.4 1495.39 1960.5 1386.58 2296C1277.78 2631.5 1119.19 3121.1 1034.16 3384C949.14 3646.9 857.17 3929.95 829.79 4013C802.4 4096.05 780 4164.9 780 4166C780 4167.1 1096.35 4168.04 1483 4168.09L2186 4168.17C2224.68 4057.99 2265.33 3939.6 2301.29 3834L2366.67 3642L3224 3640C3239.22 3688.05 3265.37 3777.6 3291.94 3870C3318.5 3962.4 3346.55 4059.6 3354.28 4086C3362.01 4112.4 3371.04 4141.2 3374.33 4150L3380.32 4166C4479.02 4164.24 4798.53 4163.34 4799.18 4162.87C4799.82 4162.39 4788.69 4123.3 4774.45 4076C4760.2 4028.7 4729.53 3925.2 4706.3 3846C4683.07 3766.8 4634.8 3603.44 4599.03 3482.97C4563.26 3362.51 4534.9 3262.45 4536 3260.63C4537.1 3258.81 4556.9 3251.49 4580 3244.37C4603.1 3237.24 4644.5 3221.41 4672 3209.17C4699.5 3196.94 4733.7 3180.66 4748 3173C4762.3 3165.34 4792.9 3146.35 4816 3130.8C4839.1 3115.25 4871.5 3092.31 4888 3079.83C4904.5 3067.35 4936 3040.94 4958 3021.14C4980 3001.34 5013.3 2967.57 5032 2946.1C5050.7 2924.64 5078.09 2890.63 5092.87 2870.54C5107.65 2850.44 5133.25 2811.5 5149.76 2784C5166.27 2756.5 5188.62 2715.1 5199.42 2692C5210.22 2668.9 5226.29 2630.2 5235.13 2606C5243.98 2581.8 5257.54 2536.8 5265.29 2506C5273.03 2475.2 5282.62 2429.3 5286.6 2404C5292.25 2368.1 5293.86 2334.29 5293.92 2250C5293.98 2164.48 5292.48 2132.42 5286.68 2096C5282.66 2070.7 5273.03 2024.8 5265.29 1994C5257.54 1963.2 5244.06 1918.2 5235.32 1894C5226.58 1869.8 5206.2 1823 5190.04 1790C5173.87 1757 5144.46 1705.7 5124.68 1676C5104.89 1646.3 5077.03 1607.6 5062.76 1590C5048.5 1572.4 5017.29 1538.16 4993.41 1513.9C4969.53 1489.65 4931.1 1454.72 4908 1436.27C4884.9 1417.83 4850.7 1392.46 4832 1379.9C4813.3 1367.34 4786.3 1350.44 4772 1342.35C4757.7 1334.26 4724.4 1317.11 4698 1304.24C4671.6 1291.37 4632 1274.11 4610 1265.88C4588 1257.65 4542.1 1243.99 4508 1235.52C4473.9 1227.05 4422.6 1216.97 4394 1213.12C4354.93 1207.86 4314.14 1206.11 4230 1206.1C4130.13 1206.09 4112.37 1207.1 4066 1215.43C4037.4 1220.57 3994.51 1229.55 3970.69 1235.38C3933.03 1244.61 3926.95 1245.22 3924.16 1240C3922.4 1236.7 3892.84 1144 3858.47 1034C3824.1 924 3793.29 828.15 3789.99 821L3784 808L1869.41 808L1845.08 883Z" />
		<path id="Path 2" class="shp2" d="M1917.38 873C1915.73 875.75 1911.27 888.8 1907.48 902C1903.69 915.2 1893.42 947.6 1884.66 974C1875.9 1000.4 1864.86 1033.7 1860.13 1048C1855.39 1062.3 1848.16 1085.7 1844.06 1100C1839.95 1114.3 1832.09 1138.6 1826.59 1154C1821.1 1169.4 1805.66 1215.75 1792.3 1257C1778.93 1298.25 1768.03 1335.15 1768.07 1339C1768.1 1342.85 1766.57 1347.8 1764.65 1350C1762.74 1352.2 1753.54 1378.3 1744.22 1408C1734.9 1437.7 1719.45 1485.4 1709.9 1514C1700.35 1542.6 1678.75 1609.2 1661.89 1662C1645.04 1714.8 1628.98 1765.2 1626.2 1774C1623.41 1782.8 1614.36 1811.6 1606.08 1838C1597.81 1864.4 1586.94 1897.7 1581.94 1912C1576.95 1926.3 1559.88 1978.5 1544.02 2028C1528.16 2077.5 1504.45 2151.3 1491.33 2192C1478.21 2232.7 1457.87 2295.7 1446.13 2332C1434.39 2368.3 1416.26 2425 1405.82 2458C1395.39 2491 1375.55 2552.2 1361.74 2594C1347.93 2635.8 1326.35 2702.4 1313.79 2742C1301.23 2781.6 1286.92 2826.6 1281.98 2842C1277.04 2857.4 1263.54 2899.7 1251.97 2936C1240.4 2972.3 1226.85 3013.7 1221.86 3028C1216.87 3042.3 1206.52 3073.8 1198.85 3098C1191.19 3122.2 1175.56 3171.7 1164.13 3208C1152.69 3244.3 1135.18 3300.1 1125.21 3332C1115.23 3363.9 1101.65 3406.2 1095.01 3426C1088.37 3445.8 1077.13 3479.1 1070.01 3500C1062.9 3520.9 1052.27 3553.3 1046.39 3572C1040.51 3590.7 1023.07 3645.6 1007.64 3694C992.2 3742.4 976.3 3791.9 972.3 3804C968.3 3816.1 955.1 3856.6 942.96 3894C930.82 3931.4 910.78 3993.05 898.44 4031C886.1 4068.95 876 4104.5 876 4110L876 4120L2134 4118C2204.35 3904.1 2230.72 3824.9 2238 3804C2245.27 3783.1 2264.11 3726.4 2279.86 3678C2295.61 3629.6 2310.12 3587.3 2312.1 3584C2315.27 3578.73 2374.03 3577.86 2794.85 3576.87L3274 3575.74C3294.69 3642.59 3302.28 3667.4 3304.22 3674C3306.16 3680.6 3311.13 3698.6 3315.26 3714C3319.39 3729.4 3326.59 3754.6 3331.27 3770C3335.95 3785.4 3348.57 3827.7 3359.32 3864C3370.08 3900.3 3388.27 3962.4 3399.76 4002C3411.24 4041.6 3423.65 4083.34 3427.32 4094.75L3434 4115.49C3477.4 4119.29 3764.5 4119.85 4100 4119.19C4639.31 4118.14 4709.94 4117.3 4709.47 4112C4709.17 4108.7 4700.6 4078.1 4690.42 4044C4680.24 4009.9 4666.37 3963.1 4659.6 3940C4652.82 3916.9 4643.95 3887.2 4639.89 3874C4635.82 3860.8 4629 3838.3 4624.73 3824C4620.45 3809.7 4610.44 3776.4 4602.48 3750C4594.52 3723.6 4576.97 3664.2 4563.48 3618C4549.98 3571.8 4531.9 3510.6 4523.3 3482C4514.7 3453.4 4501.35 3408.4 4493.63 3382C4485.92 3355.6 4476.09 3321.85 4471.8 3307C4465.14 3283.96 4462.68 3280 4455 3280.02C4450.05 3280.04 4428.9 3282.6 4408 3285.72C4387.1 3288.84 4341.2 3293.57 4306 3296.23C4270.37 3298.92 4216.29 3300.04 4184 3298.76C4152.1 3297.5 4103.5 3292.58 4076 3287.84C4048.5 3283.09 4021.5 3278.78 4016 3278.25C4010.5 3277.72 4003.3 3276.31 4000 3275.12C3996.7 3273.93 3975.1 3267.99 3952 3261.93C3928.9 3255.87 3892.9 3244.68 3872 3237.05C3851.1 3229.43 3813.3 3213.34 3788 3201.29C3762.7 3189.24 3722.2 3167.51 3698 3152.99C3673.8 3138.48 3640.5 3116.64 3624 3104.46C3607.5 3092.28 3580.5 3071.5 3564 3058.28C3547.5 3045.06 3518.67 3018.89 3499.93 3000.12C3481.19 2981.35 3448.62 2944.4 3427.56 2918C3406.49 2891.6 3377.51 2852 3363.16 2830C3348.81 2808 3327.88 2773.8 3316.66 2754C3305.44 2734.2 3288.84 2700.9 3279.77 2680C3270.71 2659.1 3255.23 2618.6 3245.39 2590C3235.54 2561.4 3222.31 2516.4 3215.99 2490C3209.67 2463.6 3201.48 2425.8 3197.79 2406C3193.29 2381.79 3190.49 2339.86 3189.26 2278C3187.91 2210.06 3189.04 2172.92 3193.57 2136C3196.94 2108.5 3203.29 2068 3207.67 2046C3212.05 2024 3219.2 1993.4 3223.55 1978C3227.91 1962.6 3238.8 1929.3 3247.75 1904C3256.71 1878.7 3278.57 1829.2 3296.34 1794C3314.11 1758.8 3340.65 1712.1 3355.32 1690.21C3370 1668.33 3391.9 1637.51 3404 1621.73C3416.1 1605.94 3443.1 1573.74 3464 1550.18C3484.9 1526.62 3520.9 1490.8 3544 1470.59C3567.1 1450.38 3594.1 1427.38 3604 1419.49C3613.9 1411.59 3642.7 1391.57 3668 1375C3693.3 1358.44 3731.1 1335.41 3752 1323.84C3772.9 1312.27 3804.85 1295.87 3823 1287.4C3841.15 1278.93 3856.02 1271.55 3856.05 1271C3856.08 1270.45 3852.63 1259.2 3848.38 1246C3844.13 1232.8 3838.59 1213.9 3836.06 1204C3833.54 1194.1 3821.53 1151.8 3809.39 1110C3797.25 1068.2 3782.17 1016.9 3775.88 996C3769.6 975.1 3759.55 939.1 3753.55 916C3747.56 892.9 3740.71 872.68 3738.33 871.06C3735.95 869.44 3325.94 868.09 2827.2 868.06C2105.97 868.01 1919.78 869.02 1917.38 873Z" />
		<path id="Path 3" class="shp0" d="M4116 1270.52C4092.9 1273.65 4053.3 1280.87 4028 1286.55C4002.7 1292.24 3955.9 1305.83 3924 1316.77C3892.1 1327.71 3839.9 1349.52 3808 1365.24C3776.1 1380.97 3726.6 1409.41 3698 1428.46C3669.4 1447.5 3625.3 1480.99 3600 1502.87C3574.7 1524.75 3539.42 1558.71 3521.61 1578.33C3503.79 1597.95 3474.92 1632.9 3457.44 1656C3439.96 1679.1 3413.79 1717.8 3399.29 1742C3384.78 1766.2 3366.63 1798.6 3358.95 1814C3351.27 1829.4 3336.84 1862.7 3326.87 1888C3316.91 1913.3 3303.33 1952.9 3296.71 1976C3290.09 1999.1 3282.7 2027.9 3280.28 2040C3277.87 2052.1 3273.13 2078.2 3269.75 2098C3266.32 2118.04 3262.54 2173.01 3261.21 2222C3259.63 2280.37 3260.45 2323.47 3263.64 2350C3266.29 2372 3271.1 2404.4 3274.33 2422C3277.56 2439.6 3284.55 2471.1 3289.85 2492C3295.15 2512.9 3306.07 2548.9 3314.12 2572C3322.16 2595.1 3337.92 2633.8 3349.14 2658C3360.36 2682.2 3376.65 2714.6 3385.33 2730C3394.02 2745.4 3413.38 2776 3428.35 2798C3443.32 2820 3467.19 2852.4 3481.39 2870C3495.58 2887.6 3524.98 2920 3546.71 2942C3568.45 2964 3603.28 2995.58 3624.11 3012.17C3644.95 3028.76 3673.7 3050.47 3688 3060.42C3702.3 3070.36 3728.4 3086.85 3746 3097.05C3763.6 3107.26 3800.5 3126.27 3828 3139.31C3855.5 3152.35 3899.6 3170.25 3926 3179.1C3952.4 3187.94 3989.3 3198.94 4008 3203.53C4026.7 3208.12 4063.6 3215.57 4090 3220.07C4120.8 3225.32 4165.95 3229.09 4216 3230.59C4274.83 3232.35 4308.25 3231.32 4352 3226.38C4383.9 3222.78 4430.7 3215.21 4456 3209.56C4481.3 3203.9 4521.8 3192.92 4546 3185.15C4570.2 3177.38 4613.4 3160.8 4642 3148.31C4670.6 3135.83 4715.6 3112.85 4742 3097.25C4768.4 3081.65 4804.4 3058.54 4822 3045.89C4839.6 3033.23 4869.3 3009.93 4888 2994.1C4906.7 2978.27 4939.39 2946.57 4960.65 2923.66C4981.91 2900.75 5008.01 2871.2 5018.65 2858C5029.29 2844.81 5051.18 2814.21 5067.28 2790C5083.39 2765.8 5107.94 2723.5 5121.83 2696C5135.73 2668.5 5155.25 2625.3 5165.22 2600C5175.18 2574.7 5188.83 2533.3 5195.53 2508C5202.24 2482.7 5211.42 2441.3 5215.94 2416C5220.47 2390.7 5226.18 2343 5228.64 2310C5231.94 2265.75 5231.94 2234.25 5228.64 2190C5226.18 2157 5220.34 2107.5 5215.68 2080C5211.02 2052.5 5199.98 2004.8 5191.15 1974C5182.33 1943.2 5169.13 1903.6 5161.83 1886C5154.52 1868.4 5142.34 1840.5 5134.75 1824C5127.17 1807.5 5111.57 1777.8 5100.08 1758C5088.6 1738.2 5067.27 1704.9 5052.68 1684C5038.09 1663.1 5013.3 1630.7 4997.6 1612C4981.89 1593.3 4951.26 1560.8 4929.52 1539.78C4907.78 1518.76 4876.5 1490.65 4860 1477.31C4843.5 1463.97 4810.2 1440.08 4786 1424.22C4761.8 1408.35 4715 1382.02 4682 1365.71C4649 1349.39 4595.9 1326.92 4564 1315.78C4531.91 1304.57 4480.09 1290.36 4448 1283.97C4416.1 1277.62 4372.45 1270.52 4351 1268.21C4329.55 1265.89 4277.35 1264.18 4235 1264.41C4192.65 1264.64 4139.1 1267.39 4116 1270.52Z" />
		<path id="Path 4" fill-rule="evenodd" class="shp1" d="M4232 1376L4232 1432L4211 1431.99C4199.45 1431.99 4174.7 1433.88 4156 1436.18C4137.3 1438.49 4104 1443.99 4082 1448.4C4060 1452.81 4017.7 1464.49 3988 1474.37C3958.3 1484.24 3914.2 1502.08 3890 1514C3865.8 1525.93 3828.9 1546.77 3808 1560.32C3787.1 1573.86 3754.7 1597.17 3736 1612.11C3717.3 1627.06 3684.78 1656.99 3663.74 1678.64C3642.7 1700.29 3613.75 1733.3 3599.41 1752C3585.07 1770.7 3563.4 1802.2 3551.25 1822C3539.1 1841.8 3523.23 1869.7 3515.99 1884C3508.75 1898.3 3494.97 1930.7 3485.36 1956C3475.76 1981.3 3464.5 2014.6 3460.33 2030C3456.17 2045.4 3449.93 2072.4 3446.48 2090C3443.02 2107.6 3438.34 2140.9 3436.07 2164C3433.8 2187.1 3431.95 2208.25 3431.97 2211C3431.99 2214.53 3423.75 2216 3376 2216L3375.99 2203C3375.99 2195.85 3378.56 2169.3 3381.72 2144C3384.87 2118.7 3391.35 2080 3396.1 2058C3400.86 2036 3411.91 1996.4 3420.66 1970C3429.41 1943.6 3448.68 1896.8 3463.48 1866C3478.28 1835.2 3503.23 1791.1 3518.94 1768C3534.65 1744.9 3562.63 1708 3581.13 1686C3599.63 1664 3628.54 1632.95 3645.38 1617C3662.22 1601.05 3689.95 1576.9 3707 1563.33C3724.05 1549.77 3753.3 1528.76 3772 1516.65C3790.7 1504.54 3825.8 1484.24 3850 1471.54C3874.2 1458.84 3910.2 1442.27 3930 1434.72C3949.8 1427.18 3985.8 1415.31 4010 1408.35C4034.2 1401.39 4075.6 1392.25 4102 1388.03C4128.4 1383.81 4156.3 1379.66 4164 1378.82C4171.7 1377.97 4190.15 1376.99 4232 1376ZM4276 1376L4288 1376C4294.6 1376 4317.55 1377.93 4339 1380.28C4360.45 1382.63 4399.6 1389.09 4426 1394.63C4452.4 1400.16 4491.1 1410.17 4512 1416.85C4532.9 1423.54 4568.9 1437.06 4592 1446.9C4615.1 1456.74 4651.1 1474.36 4672 1486.07C4692.9 1497.77 4727.38 1519.64 4748.61 1534.67C4769.85 1549.7 4804.66 1577.3 4825.96 1596C4847.27 1614.7 4879.4 1646.86 4897.35 1667.47C4915.31 1688.08 4941.42 1720.48 4955.38 1739.47C4969.34 1758.46 4990.44 1791.1 5002.27 1812C5014.1 1832.9 5032.54 1869.8 5043.24 1894C5053.95 1918.2 5067.43 1952.4 5073.21 1970C5078.98 1987.6 5087.33 2016.4 5091.76 2034C5096.19 2051.6 5102.62 2082.2 5106.06 2102C5109.5 2121.8 5113.59 2155.65 5118 2216.46L5062 2214L5058.91 2174C5057.22 2152 5051.41 2112.4 5046.01 2086C5040.61 2059.6 5030.97 2021.8 5024.59 2002C5018.21 1982.2 5007.24 1951.6 5000.22 1934C4993.2 1916.4 4978.38 1884.9 4967.29 1864C4956.2 1843.1 4935.35 1808.9 4920.97 1788C4906.58 1767.1 4883.59 1736.5 4869.89 1720C4856.19 1703.5 4830.81 1676.48 4813.49 1659.96C4796.17 1643.44 4766.7 1617.98 4748 1603.39C4729.3 1588.81 4699.6 1567.92 4682 1556.99C4664.4 1546.06 4632 1528.09 4610 1517.06C4588 1506.03 4552 1490.27 4530 1482.04C4508 1473.81 4472.9 1462.72 4452 1457.4C4431.1 1452.08 4397.8 1445.21 4378 1442.14C4358.2 1439.07 4327.15 1435.54 4276 1432L4276 1376ZM4232 1472L4232 1532C4232 1576.51 4230.71 1592.4 4227 1593.54C4224.25 1594.38 4201.3 1597.2 4176 1599.8C4150.7 1602.4 4109.3 1609.92 4084 1616.52C4058.7 1623.12 4020.9 1635.84 4000 1644.78C3979.1 1653.72 3952.1 1666.54 3940 1673.27C3927.9 1679.99 3907.2 1692.64 3894 1701.36C3880.8 1710.08 3853.35 1730.45 3833 1746.61C3812.65 1762.78 3781.47 1792.65 3763.72 1813C3745.96 1833.35 3721.31 1865.3 3708.94 1884C3696.56 1902.7 3678.89 1933.3 3669.66 1952C3660.44 1970.7 3646.51 2003.1 3638.71 2024C3630.91 2044.9 3620.03 2084.5 3614.53 2112C3609.03 2139.5 3603.51 2174.15 3600 2216L3474 2216.06L3476.92 2181.03C3478.52 2161.76 3482.78 2128.9 3486.37 2108C3489.97 2087.1 3497.89 2052.9 3503.96 2032C3510.04 2011.1 3520.77 1979.6 3527.82 1962C3534.87 1944.4 3551.35 1909.3 3564.45 1884C3577.54 1858.7 3603.05 1817.35 3621.13 1792.12C3639.21 1766.88 3672 1728 3694 1705.72C3716 1683.44 3746.6 1655.37 3762 1643.33C3777.4 1631.3 3805.3 1611.04 3824 1598.31C3842.7 1585.58 3879.6 1564.65 3906 1551.8C3932.4 1538.96 3969.3 1522.81 3988 1515.93C4006.7 1509.04 4040.9 1498.86 4064 1493.29C4087.1 1487.72 4123.1 1480.84 4144 1477.99C4164.9 1475.15 4193.25 1472.64 4232 1472ZM4277.29 1470.8L4313.64 1473.46C4333.64 1474.93 4372.5 1480.67 4400 1486.22C4427.5 1491.78 4471.6 1503.64 4498 1512.57C4524.4 1521.51 4566.7 1539.1 4592 1551.67C4617.3 1564.23 4654.2 1585.38 4674 1598.66C4693.8 1611.95 4723.5 1633.68 4740 1646.95C4756.5 1660.23 4786.24 1687.94 4806.09 1708.54C4825.94 1729.14 4850.44 1756.8 4860.54 1770C4870.64 1783.2 4888.91 1809.3 4901.13 1828C4913.36 1846.7 4933.35 1882.7 4945.56 1908C4957.76 1933.3 4974.85 1975.6 4983.53 2002C4992.22 2028.4 5003.08 2069.8 5007.67 2094C5012.26 2118.2 5017.37 2154.78 5019.01 2175.3C5020.65 2195.81 5021.25 2213.36 5020.33 2214.3C5019.42 2215.23 4991.97 2216 4900 2216L4898 2198C4896.9 2188.1 4894.97 2171.45 4893.72 2161C4892.47 2150.55 4887.74 2124 4883.21 2102C4878.68 2080 4870.97 2050.3 4866.07 2036C4861.17 2021.7 4851.29 1996.5 4844.11 1980C4836.94 1963.5 4821.95 1934.7 4810.82 1916C4799.69 1897.3 4781.17 1869.4 4769.68 1854C4758.19 1838.6 4737.36 1813.57 4723.39 1798.38C4709.43 1783.18 4685.4 1760.5 4670 1747.97C4654.6 1735.44 4628.5 1716.15 4612 1705.11C4595.5 1694.07 4566.7 1676.87 4548 1666.89C4529.3 1656.91 4496.9 1642.44 4476 1634.74C4455.1 1627.04 4417.3 1616.12 4392 1610.47C4366.7 1604.83 4330.24 1598.81 4275.94 1594L4276.61 1532.4L4277.29 1470.8ZM4232 1636L4232.09 1754L4205.04 1757.29C4190.17 1759.09 4158.2 1765.58 4134 1771.7C4109.8 1777.81 4074.7 1789.94 4056 1798.65C4037.3 1807.36 4005.8 1825.01 3986 1837.88C3965.17 1851.42 3934.82 1876.6 3913.96 1897.64C3894.14 1917.64 3867.79 1949.3 3855.4 1968C3843.01 1986.7 3827.51 2012.8 3820.96 2026C3814.4 2039.2 3804.39 2063.5 3798.71 2080C3793.03 2096.5 3785.77 2122.6 3782.58 2138C3779.39 2153.4 3775.7 2177.25 3772 2216L3644 2216L3643.96 2199C3643.94 2189.65 3646.68 2165.8 3650.06 2146C3653.44 2126.2 3660.84 2093.8 3666.51 2074C3672.18 2054.2 3683.83 2021.8 3692.41 2002C3701 1982.2 3716.38 1951.6 3726.61 1934C3736.84 1916.4 3756.5 1887.6 3770.31 1870C3784.12 1852.4 3809.5 1824.28 3826.71 1807.52C3843.92 1790.75 3869.7 1768.2 3884 1757.4C3898.3 1746.6 3922.6 1730.32 3938 1721.23C3953.4 1712.13 3978.6 1698.94 3994 1691.91C4009.4 1684.89 4036.4 1674.1 4054 1667.94C4071.6 1661.78 4104 1653.03 4126 1648.5C4148 1643.96 4170.5 1639.54 4176 1638.67C4181.5 1637.8 4196.35 1636.84 4232 1636ZM4276 1636L4289 1636.04C4296.15 1636.06 4320.9 1638.83 4344 1642.2C4367.1 1645.57 4404 1653.85 4426 1660.6C4448 1667.35 4483.1 1680.4 4504 1689.6C4524.9 1698.8 4560 1718.24 4582 1732.81C4604 1747.37 4634.6 1769.91 4650 1782.88C4665.4 1795.86 4691.24 1821.67 4707.42 1840.24C4723.6 1858.81 4748.09 1891.1 4761.84 1912C4775.6 1932.9 4794.08 1966.2 4802.91 1986C4811.75 2005.8 4823.78 2036.4 4829.64 2054C4835.51 2071.6 4843.68 2103.1 4847.8 2124C4851.92 2144.9 4856.35 2174.15 4860 2216L4800 2216C4750.22 2216 4739.66 2214.98 4738 2210C4736.9 2206.7 4735.96 2197.25 4735.91 2189C4735.87 2180.75 4732.43 2158.7 4728.28 2140C4724.13 2121.3 4716.74 2094.3 4711.86 2080C4706.99 2065.7 4694.69 2037.8 4684.54 2018C4674.39 1998.2 4656 1968.5 4643.68 1952C4631.35 1935.5 4606.13 1907.57 4587.63 1889.93C4569.14 1872.29 4541.4 1849.48 4526 1839.24C4510.6 1829.01 4484.95 1814.19 4469 1806.31C4453.05 1798.44 4423.35 1786.41 4403 1779.59C4382.65 1772.76 4345.74 1764.21 4275.97 1754L4275.99 1695L4276 1636ZM4232 1796L4232 1952C4232 2087.11 4232.8 2108.27 4238 2110C4241.3 2111.1 4248.5 2112 4254 2112C4259.5 2112 4266.7 2111.1 4270 2110C4275.2 2108.27 4276 2087.11 4276 1796L4294 1796C4303.9 1796 4325.05 1798.73 4341 1802.07C4356.95 1805.41 4381.7 1811.85 4396 1816.39C4410.3 1820.92 4435.5 1831.34 4452 1839.54C4468.5 1847.74 4493.7 1862.32 4508 1871.95C4522.3 1881.57 4546.41 1901.27 4561.59 1915.73C4576.76 1930.18 4599.99 1956.4 4613.22 1974C4626.44 1991.6 4645.78 2024 4656.19 2046C4666.6 2068 4678.8 2099.5 4683.29 2116C4687.78 2132.5 4693.38 2159.05 4695.73 2175C4698.08 2190.95 4700 2206.7 4700 2210C4700 2215.21 4679.44 2216.13 4386 2218L4386 2258L4543 2259C4665.41 2259.78 4700 2261.1 4699.98 2265C4699.98 2267.75 4697.18 2287.1 4693.78 2308C4690.37 2328.9 4683.03 2359.5 4677.47 2376C4671.91 2392.5 4658.58 2423.1 4647.86 2444C4637.14 2464.9 4616.54 2496.4 4602.07 2514C4587.61 2531.6 4563.68 2556.49 4548.89 2569.32C4534.1 2582.15 4507.6 2601.53 4490 2612.39C4472.4 2623.25 4445.4 2637.38 4430 2643.78C4414.6 2650.18 4387.6 2659.16 4370 2663.73C4352.4 2668.3 4325.4 2673.61 4310 2675.52C4294.6 2677.43 4280.65 2678.32 4279 2677.5C4277.35 2676.67 4276 2606.7 4276 2368L4234 2370L4231.97 2678L4202.98 2675.23C4187.04 2673.71 4159.6 2668.63 4142 2663.96C4124.4 2659.28 4093.8 2647.81 4074 2638.47C4054.2 2629.13 4028.1 2615.18 4016 2607.47C4003.9 2599.76 3980.58 2581.88 3964.17 2567.73C3947.77 2553.58 3923.71 2528.5 3910.71 2512C3897.71 2495.5 3881.07 2471.2 3873.74 2458C3866.4 2444.8 3854.77 2420.5 3847.88 2404C3841 2387.5 3831.02 2355.1 3825.72 2332C3820.41 2308.9 3816.06 2283.25 3816 2260L4124 2260L4124 2216L3816 2216L3815.95 2203C3815.92 2195.85 3818.79 2174.7 3822.33 2156C3825.88 2137.3 3834.64 2105.8 3841.81 2086C3848.98 2066.2 3858.07 2043.7 3861.99 2036C3865.92 2028.3 3877.23 2009.4 3887.11 1994C3896.99 1978.6 3925.14 1946.2 3949.67 1922C3979.89 1892.18 4004.53 1871.96 4026.13 1859.25C4043.66 1848.94 4071.5 1834.84 4088 1827.92C4104.5 1821 4136 1811.12 4158 1805.95C4180 1800.79 4205.65 1796.43 4232 1796ZM2803.96 1960C2805.85 1963.3 2817.52 1999.3 2829.9 2040C2842.29 2080.7 2855.08 2123.9 2858.34 2136C2861.6 2148.1 2870.62 2178.7 2878.39 2204C2886.16 2229.3 2898.86 2270.7 2906.62 2296C2914.38 2321.3 2923.96 2352.8 2927.92 2366C2931.87 2379.2 2942.69 2416.1 2951.96 2448C2961.23 2479.9 2973.89 2522.2 2980.08 2542C2986.27 2561.8 2996.08 2594.2 3001.87 2614C3007.66 2633.8 3017 2665.3 3022.62 2684C3028.24 2702.7 3038.05 2734.65 3044.42 2755C3050.79 2775.35 3056 2796.5 3056 2812L2813 2812.44C2679.35 2812.69 2565.5 2812.53 2560 2812.1C2554.5 2811.67 2548.8 2810.12 2547.34 2808.66C2545.87 2807.2 2551.7 2782.6 2560.29 2754C2568.88 2725.4 2583.34 2676.8 2592.43 2646C2601.52 2615.2 2613.43 2575.6 2618.9 2558C2624.36 2540.4 2634.03 2508 2640.38 2486C2646.72 2464 2654.52 2437.9 2657.71 2428C2660.89 2418.1 2670.73 2385.7 2679.57 2356C2688.4 2326.3 2705.76 2267.8 2718.14 2226C2730.51 2184.2 2748.46 2123.9 2758.02 2092C2767.58 2060.1 2780.05 2018.7 2785.72 2000C2791.4 1981.3 2797.06 1963.3 2798.29 1960C2800.29 1954.67 2800.92 1954.67 2803.96 1960Z" />
		<path id="Path 5" class="shp0" d="M2774.12 2293C2761.25 2335.35 2739.5 2406.9 2725.79 2452C2712.08 2497.1 2692.48 2561 2682.25 2594C2672.01 2627 2658.46 2671.1 2652.13 2692C2645.8 2712.9 2639.58 2734.05 2638.31 2739L2636 2748C2893.3 2748 2968 2747.1 2968 2746C2968 2744.9 2933.95 2630.15 2892.33 2491C2850.72 2351.85 2814.72 2233.05 2812.33 2227C2809.95 2220.95 2805.64 2216 2802.76 2216C2799.43 2216 2788.98 2244.1 2774.12 2293Z" />
		<path id="Path 6" fill-rule="evenodd" class="shp1" d="M3376 2260L3432 2260L3432 2280C3432 2291 3434.73 2321.15 3438.07 2347C3441.41 2372.85 3448.79 2412.9 3454.48 2436C3460.17 2459.1 3472.07 2497.8 3480.92 2522C3489.78 2546.2 3506.69 2585.35 3518.51 2609C3530.33 2632.65 3550.15 2667.75 3562.55 2687C3574.95 2706.25 3593.36 2732.8 3603.47 2746C3613.58 2759.2 3637.18 2785.94 3655.92 2805.43C3674.67 2824.92 3704.4 2853.06 3722 2867.96C3739.6 2882.87 3771.55 2906.98 3793 2921.53C3814.45 2936.09 3857.65 2960.52 3889 2975.82C3920.35 2991.13 3964.9 3009.85 3988 3017.43C4011.1 3025.02 4050.7 3035.83 4076 3041.47C4101.3 3047.11 4146.76 3054.04 4232.04 3062L4232.07 3118L4191.03 3114.68C4168.46 3112.86 4129.3 3107.87 4104 3103.6C4078.7 3099.33 4041.8 3091.55 4022 3086.32C4002.2 3081.08 3968 3070.13 3946 3061.97C3924 3053.81 3889.8 3039.38 3870 3029.9C3850.2 3020.42 3816.9 3002.35 3796 2989.75C3775.1 2977.16 3741.8 2954.7 3722 2939.86C3702.2 2925.01 3669.94 2897.82 3650.31 2879.43C3630.68 2861.04 3599.47 2828 3580.96 2806C3562.45 2784 3535.99 2748.9 3522.17 2728C3508.35 2707.1 3488.78 2674.7 3478.69 2656C3468.6 2637.3 3452.41 2603.1 3442.71 2580C3433 2556.9 3419.37 2518.2 3412.41 2494C3405.45 2469.8 3396.28 2432 3392.01 2410C3387.75 2388 3382.41 2352.45 3380.13 2331C3377.86 2309.55 3376 2284.8 3376 2276L3376 2260ZM3476 2260L3598 2259.91L3601.2 2288.95C3602.96 2304.93 3606.99 2333.3 3610.17 2352C3613.34 2370.7 3620.17 2401.3 3625.33 2420C3630.5 2438.7 3643.1 2473.8 3653.35 2498C3663.59 2522.2 3681.18 2557.3 3692.44 2576C3703.69 2594.7 3724.18 2624.4 3737.95 2642C3751.72 2659.6 3776.27 2687.21 3792.5 2703.36C3808.72 2719.51 3839.1 2745.69 3860 2761.55C3880.9 2777.4 3910.6 2797.44 3926 2806.08C3941.4 2814.72 3970.2 2828.79 3990 2837.35C4009.8 2845.91 4043.1 2858.01 4064 2864.25C4084.9 2870.48 4118.2 2878.28 4138 2881.59C4157.8 2884.9 4187.07 2889.04 4232.09 2894L4232 3016L4207 3015.96C4193.25 3015.94 4163.1 3013.13 4140 3009.71C4116.9 3006.3 4080 2998.97 4058 2993.43C4036 2987.9 4000.9 2977.02 3980 2969.26C3959.1 2961.5 3924.9 2946.63 3904 2936.22C3883.1 2925.81 3852.5 2908.89 3836 2898.62C3819.5 2888.34 3790.7 2867.81 3772 2852.98C3753.3 2838.15 3724.71 2813.41 3708.46 2798.01C3692.21 2782.6 3663.8 2751.1 3645.32 2728C3626.85 2704.9 3602.94 2671.6 3592.19 2654C3581.44 2636.4 3563.71 2604 3552.79 2582C3541.86 2560 3527.22 2525.8 3520.25 2506C3513.28 2486.2 3503.28 2452.9 3498.04 2432C3492.79 2411.1 3485.7 2375.1 3482.29 2352C3478.87 2328.9 3476.06 2298.75 3476.04 2285L3476 2260ZM3644 2260L3772 2260L3774.32 2285C3775.59 2298.75 3780.33 2326.2 3784.86 2346C3789.38 2365.8 3798.21 2395.5 3804.48 2412C3810.75 2428.5 3825.17 2458.2 3836.52 2478C3847.87 2497.8 3866.62 2525.7 3878.17 2540C3889.73 2554.3 3908.82 2575.29 3920.59 2586.64C3932.37 2597.99 3956.4 2617.54 3974 2630.08C3991.6 2642.62 4021.3 2660.57 4040 2669.96C4058.7 2679.36 4089.3 2691.9 4108 2697.83C4126.7 2703.76 4156.4 2711.18 4174 2714.3C4191.6 2717.43 4211.85 2719.99 4232 2720L4232 2848L4209 2847.98C4196.35 2847.97 4169.8 2845.32 4150 2842.08C4130.2 2838.85 4097.8 2831.54 4078 2825.85C4058.2 2820.16 4019.5 2804.69 3992 2791.48C3964.5 2778.26 3927.6 2757.71 3910 2745.8C3892.4 2733.9 3865 2712.88 3849.11 2699.08C3833.21 2685.29 3804.89 2656 3786.16 2634C3767.43 2612 3741.44 2576 3728.39 2554C3715.35 2532 3698.36 2498.7 3690.63 2480C3682.91 2461.3 3671.89 2429.8 3666.14 2410C3660.4 2390.2 3653.07 2357.8 3649.86 2338C3646.66 2318.2 3644.02 2292.55 3644.02 2281L3644 2260ZM4860 2260L4857.76 2289C4856.53 2304.95 4853.6 2330.6 4851.27 2346C4848.93 2361.4 4841.97 2391.1 4835.81 2412C4829.65 2432.9 4817.55 2466.2 4808.94 2486C4800.32 2505.8 4784.69 2536.4 4774.21 2554C4763.73 2571.6 4743.86 2600.4 4730.04 2618C4716.23 2635.6 4691.67 2662.73 4675.46 2678.28C4659.26 2693.84 4632.5 2716.6 4616 2728.86C4599.5 2741.13 4569.8 2760.39 4550 2771.67C4530.2 2782.95 4495.1 2799.55 4472 2808.56C4448.9 2817.57 4411.1 2829.29 4388 2834.6C4364.9 2839.91 4330.19 2845.55 4275.73 2850L4278 2722.41L4316 2717.12C4336.9 2714.21 4370.2 2707.26 4390 2701.66C4409.8 2696.07 4441.3 2684.29 4460 2675.5C4478.7 2666.7 4509.3 2649.3 4528 2636.83C4546.7 2624.36 4578.23 2597.92 4598.06 2578.08C4617.9 2558.24 4642.49 2529.4 4652.72 2514C4662.95 2498.6 4678.67 2471.15 4687.66 2453C4696.65 2434.85 4708.68 2406.05 4714.4 2389C4720.12 2371.95 4727.31 2343.6 4730.39 2326C4733.47 2308.4 4735.69 2287.55 4735.33 2279.67C4734.96 2271.78 4736.17 2264.13 4738 2262.67C4739.83 2261.2 4768.03 2260 4860 2260ZM4901.08 2260L4959.54 2259.89C4991.69 2259.83 5018.9 2260.58 5020 2261.57C5021.1 2262.55 5020.83 2282.85 5019.4 2306.68C5017.96 2330.5 5013.76 2365.3 5010.05 2384C5006.34 2402.7 4998.81 2434.2 4993.32 2454C4987.82 2473.8 4977.43 2505.3 4970.21 2524C4962.99 2542.7 4949.43 2573.3 4940.07 2592C4930.7 2610.7 4913.13 2641.3 4901.01 2660C4888.9 2678.7 4867.75 2708.4 4854.03 2726C4840.31 2743.6 4809.94 2776.45 4786.54 2799C4763.14 2821.55 4730.05 2850.27 4713 2862.83C4695.95 2875.39 4667.6 2894.42 4650 2905.12C4632.4 2915.82 4600.9 2932.77 4580 2942.78C4559.1 2952.79 4518.6 2968.8 4490 2978.37C4461.4 2987.94 4416.4 2999.5 4390 3004.07C4363.6 3008.63 4327.14 3013.64 4275.94 3018L4275.91 2894L4316.95 2888.72C4339.53 2885.82 4374.2 2879.99 4394 2875.76C4413.8 2871.54 4444.85 2862.66 4463 2856.04C4481.15 2849.42 4508.15 2838.5 4523 2831.77C4537.85 2825.05 4565.3 2810.38 4584 2799.18C4602.7 2787.98 4632.4 2767.64 4650 2753.99C4667.6 2740.33 4700 2710.35 4722 2687.36C4744 2664.37 4774.51 2626.75 4789.81 2603.78C4805.11 2580.8 4826.48 2543.1 4837.31 2520C4848.14 2496.9 4861.99 2462.7 4868.09 2444C4874.2 2425.3 4882.17 2395.6 4885.82 2378C4889.47 2360.4 4894.4 2326.65 4896.77 2303L4901.08 2260ZM5114.83 2260L5113.56 2309C5112.86 2335.95 5109.64 2372.4 5106.41 2390C5103.17 2407.6 5096.81 2437.3 5092.26 2456C5087.72 2474.7 5081.5 2498.1 5078.45 2508C5075.4 2517.9 5066.15 2543.1 5057.91 2564C5049.66 2584.9 5035.22 2617.3 5025.81 2636C5016.41 2654.7 4999.08 2685.3 4987.3 2704C4975.52 2722.7 4953.02 2755.1 4937.28 2776C4921.55 2796.9 4888.28 2834.41 4863.34 2859.36C4838.4 2884.3 4800.9 2917.83 4780 2933.86C4759.1 2949.89 4724.9 2973.44 4704 2986.2C4683.1 2998.96 4646.2 3018.87 4622 3030.45C4597.8 3042.03 4557.3 3058.61 4532 3067.29C4506.7 3075.97 4465.3 3087.74 4440 3093.44C4414.7 3099.13 4380.5 3105.52 4364 3107.62C4347.5 3109.73 4320.95 3112.48 4276 3116L4276 3060L4303 3057.74C4317.85 3056.5 4344.4 3053.64 4362 3051.4C4379.6 3049.16 4417.4 3041.41 4446 3034.17C4474.6 3026.93 4516 3014.31 4538 3006.13C4560 2997.95 4598.7 2980.38 4624 2967.08C4649.3 2953.78 4682.6 2934.41 4698 2924.02C4713.4 2913.63 4740.4 2893.71 4758 2879.74C4775.6 2865.78 4807.14 2837.17 4828.1 2816.17C4849.05 2795.18 4880.55 2758.76 4898.1 2735.23C4915.64 2711.71 4942.14 2671.21 4956.99 2645.23C4971.83 2619.26 4992.28 2577.3 5002.43 2552C5012.57 2526.7 5026.75 2484.4 5033.94 2458C5041.12 2431.6 5049.92 2389.75 5053.5 2365C5057.07 2340.25 5060.02 2310.55 5060.05 2299C5060.08 2287.45 5061.16 2273.95 5062.44 2269C5064.54 2260.87 5067.19 2260 5114.83 2260Z" />
	</g>
</svg>